<svg width="23.999999999999996" height="23.999999999999996" xmlns="http://www.w3.org/2000/svg">
 <defs>
  <linearGradient y2="Infinity" y1="Infinity" x2="Infinity" x1="NaN" id="SVGID_1_">
   <stop stop-color="#FFFFFF" stop-opacity="0.2" offset="0"/>
   <stop stop-color="#FFFFFF" stop-opacity="0" offset="1"/>
  </linearGradient>
 </defs>
 <g>
  <title>background</title>
  <rect fill="none" id="canvas_background" height="402" width="582" y="-1" x="-1"/>
 </g>
 <g>
  <title>Layer 1</title>
  <path id="svg_2" fill="#F44336" d="m12,5c1.61676,0 3.10126,0.55353 4.28632,1.47406l3.63714,-3.46997c-2.114679,-1.86414 -4.88281,-3.00409 -7.92346,-3.00409c-4.6076,0 -8.60333,2.59991 -10.6142,6.40985l4.04444,3.19293c0.97973,-2.68341 3.54724,-4.60278 6.56976,-4.60278z"/>
  <path id="svg_3" fill="#2196F3" d="m23.896061,13.50183c0.0625,-0.49164 0.103939,-0.99316 0.103939,-1.50183c0,-0.85785 -0.093691,-1.69318 -0.264771,-2.5l-11.735229,0l0,5l6.48621,0c-0.524719,1.36377 -1.45899,2.517759 -2.6482,3.31946l4.059451,3.20483c2.151918,-1.888849 3.62451,-4.53393 3.9986,-7.52246z"/>
  <path id="svg_4" fill="#FFC107" d="m5,12c0,-0.84344 0.15686,-1.64838 0.43024,-2.39722l-4.04444,-3.19293c-0.88147,1.67017 -1.3858,3.57031 -1.3858,5.59015c0,1.99725 0.49506,3.87634 1.35822,5.532961l4.04956,-3.197021c-0.25934,-0.73151 -0.40778,-1.515511 -0.40778,-2.33594z"/>
  <path id="svg_5" fill="#00B060" d="m12,19c-3.04553,0 -5.62958,-1.94849 -6.59222,-4.66406l-4.04956,3.197021c2.00103,3.840509 6.01159,6.467039 10.64178,6.467039c3.02777,0 5.788759,-1.124821 7.897461,-2.97571l-4.059451,-3.20483c-1.0968,0.739441 -2.4096,1.18054 -3.83801,1.18054z"/>
  <path id="svg_6" opacity="0.1" d="m12,23.75c-3.53168,0 -6.70728,-1.45715 -8.95245,-3.77869c2.19781,2.466501 5.38891,4.02869 8.95245,4.02869c3.53058,0 6.69525,-1.53137 8.888121,-3.95923c-2.238522,2.28388 -5.390011,3.70923 -8.888121,3.70923z"/>
  <polygon id="svg_7" points="12,14.25 12,14.5 18.4862061,14.5 18.587492,14.25  " opacity="0.1"/>
  <path id="svg_8" fill="#E6E6E6" d="m23.99445,12.14703c0.00079,-0.04925 0.00555,-0.09765 0.00555,-0.14703c0,-0.01398 -0.002199,-0.02747 -0.00226,-0.04144c-0.000669,0.06299 -0.003839,0.12524 -0.00329,0.18847z"/>
  <path id="svg_9" opacity="0.2" fill="#FFFFFF" d="m12,9.5l0,0.25l11.78557,0c-0.015751,-0.08252 -0.032949,-0.16809 -0.050341,-0.25l-11.735229,0z"/>
  <path id="svg_10" fill="url(#SVGID_1_)" d="m23.735229,9.5l-11.735229,0l0,5l6.48621,0c-1.008671,2.62158 -3.50904,4.5 -6.48621,4.5c-3.86597,0 -7,-3.13403 -7,-7c0,-3.86603 3.13403,-7 7,-7c1.40186,0 2.69391,0.43066 3.78851,1.14069c0.16754,0.10888 0.3404,0.21112 0.497809,0.33337l3.63714,-3.46997l-0.082029,-0.06311c-2.10449,-1.82391 -4.837891,-2.94098 -7.841431,-2.94098c-6.62744,0 -12,5.37256 -12,12c0,6.62738 5.37256,12 12,12c6.11768,0 11.15546,-4.58124 11.896061,-10.49817c0.0625,-0.49164 0.103939,-0.99316 0.103939,-1.50183c0,-0.85785 -0.093691,-1.69318 -0.264771,-2.5z"/>
  <path id="svg_11" opacity="0.1" d="m15.78851,5.89069c-1.094601,-0.71003 -2.38665,-1.14069 -3.78851,-1.14069c-3.86597,0 -7,3.13397 -7,7c0,0.04218 0.00057,0.07513 0.0013,0.11719c0.06744,-3.80768 3.174911,-6.86719 6.9987,-6.86719c1.40186,0 2.69391,0.43066 3.78851,1.14069c0.16754,0.10888 0.3404,0.21112 0.497809,0.33337l3.63714,-3.46997l-3.63714,3.21997c-0.15741,-0.12225 -0.33027,-0.22449 -0.497809,-0.33337z"/>
  <path id="svg_12" opacity="0.2" fill="#FFFFFF" d="m12,0.25c2.97504,0 5.68292,1.09839 7.779301,2.8916l0.144159,-0.13751l-0.11001,-0.09582c-2.10449,-1.82391 -4.80991,-2.90827 -7.81345,-2.90827c-6.62744,0 -12,5.37256 -12,12c0,0.04218 0.00586,0.08289 0.00629,0.125c0.06775,-6.56915 5.40844,-11.875 11.99371,-11.875z"/>
 </g>
</svg>